<?xml version="1.0" encoding="utf-8"?><svg version="1.1" id="Layer_1" xmlns="http://www.w3.org/2000/svg" xmlns:xlink="http://www.w3.org/1999/xlink" x="0px" y="0px" viewBox="0 0 122.88 99.45" style="enable-background:new 0 0 122.88 99.45" xml:space="preserve"><style type="text/css">.st0{fill-rule:evenodd;clip-rule:evenodd;}</style><g><path class="st0" d="M64.48,0.38h18.42c1.85,0,3.36,1.51,3.36,3.36v14.84H61.12V3.74C61.12,1.89,62.63,0.38,64.48,0.38L64.48,0.38z M86.27,27.65v45.19H61.12V27.65H86.27L86.27,27.65z M86.27,81.92v13.8c0,1.85-1.51,3.36-3.36,3.36H64.48 c-1.85,0-3.36-1.51-3.36-3.36v-13.8H86.27L86.27,81.92z"/><path class="st0" d="M101.09,0.38h18.42c1.85,0,3.36,1.51,3.36,3.36v14.84h-0.02H97.73V3.74C97.73,1.89,99.25,0.38,101.09,0.38 L101.09,0.38z M122.88,27.65v45.19H97.73V27.65h25.13H122.88L122.88,27.65z M122.88,81.92v13.8c0,1.85-1.51,3.36-3.36,3.36h-18.42 c-1.85,0-3.36-1.51-3.36-3.36v-13.8H122.88L122.88,81.92z"/><path class="st0" d="M35.95,0.2l17.31,6.3c1.74,0.63,2.64,2.57,2.01,4.31L50.2,24.75l-23.63-8.6l5.07-13.94 C32.28,0.47,34.22-0.43,35.95,0.2L35.95,0.2z M47.1,33.28L31.65,75.75l-23.63-8.6l15.45-42.46L47.1,33.28L47.1,33.28z M28.55,84.28 l-4.72,12.96c-0.63,1.74-2.57,2.64-4.31,2.01l-17.31-6.3c-1.74-0.63-2.64-2.57-2.01-4.31l4.72-12.96L28.55,84.28L28.55,84.28z"/></g></svg>